<?xml version="1.0" standalone="no"?><!DOCTYPE svg PUBLIC "-//W3C//DTD SVG 1.1//EN" "http://www.w3.org/Graphics/SVG/1.1/DTD/svg11.dtd"><svg t="1715941293242" class="icon" viewBox="0 0 1106 1024" version="1.1" xmlns="http://www.w3.org/2000/svg" p-id="1246" xmlns:xlink="http://www.w3.org/1999/xlink" width="216.015625" height="200"><path d="M204.8 409.6v-153.6h-102.4c-29.013333 0-51.2 22.186667-51.2 51.2v102.4h153.6z" fill="#78BDCC" p-id="1247"></path><path d="M1054.72 307.2h-133.12V136.533333c0-18.773333-15.36-34.133333-34.133333-34.133333h-648.533334c-18.773333 0-34.133333 15.36-34.133333 34.133333v68.266667h-102.4c-56.32 0-102.4 46.08-102.4 102.4v512c0 56.32 46.08 102.4 102.4 102.4h745.813333c44.373333 0 83.626667-29.013333 97.28-69.973333L1104.213333 375.466667c10.24-34.133333-13.653333-68.266667-49.493333-68.266667zM870.4 153.6v153.6H363.52c-35.84 0-66.56 20.48-83.626667 51.2-6.826667 11.946667-15.36 22.186667-25.6 30.72V153.6h616.106667zM197.973333 409.6H51.2v-102.4c0-29.013333 22.186667-51.2 51.2-51.2h102.4v153.6H197.973333zM896 834.56c-6.826667 20.48-27.306667 35.84-47.786667 35.84H102.4c-29.013333 0-51.2-22.186667-51.2-51.2V460.8H197.973333c54.613333 0 104.106667-30.72 128-80.213333 6.826667-13.653333 20.48-22.186667 37.546667-22.186667h691.2l-158.72 476.16z" fill="#335056" p-id="1248"></path><path d="M358.4 204.8h409.6v51.2h-409.6z" fill="#FFFFFF" p-id="1249"></path><path d="M768 204.8h-409.6v51.2h409.6v-51.2z" fill="#335056" p-id="1250"></path><path d="M793.6 486.4m-25.6 0a25.6 25.6 0 1 0 51.2 0 25.6 25.6 0 1 0-51.2 0Z" fill="#78BDCC" p-id="1251"></path><path d="M793.6 460.8c13.653333 0 25.6 11.946667 25.6 25.6s-11.946667 25.6-25.6 25.6-25.6-11.946667-25.6-25.6 11.946667-25.6 25.6-25.6m0-51.2c-42.666667 0-76.8 34.133333-76.8 76.8s34.133333 76.8 76.8 76.8 76.8-34.133333 76.8-76.8-34.133333-76.8-76.8-76.8z" fill="#335056" p-id="1252"></path></svg>