<?xml version="1.0" standalone="no"?><!DOCTYPE svg PUBLIC "-//W3C//DTD SVG 1.1//EN" "http://www.w3.org/Graphics/SVG/1.1/DTD/svg11.dtd"><svg t="1715943719412" class="icon" viewBox="0 0 1024 1024" version="1.1" xmlns="http://www.w3.org/2000/svg" p-id="2116" xmlns:xlink="http://www.w3.org/1999/xlink" width="200" height="200"><path d="M810 308.7c-11.7-62.6-66.7-110.2-132.7-110.2H522.2c-28.1-35.2-71.7-57.8-120.6-57.8H217.8c-84.7 0-153.6 67.8-153.6 151.1v443.6c0 83.3 68.9 151.1 153.6 151.1h589c84.7 0 153.6-67.8 153.6-151.1V459.6c0-82.2-67.2-149.2-150.4-150.9z m-132.7-56.2c36 0 66.5 23.6 77 56H555.2v-16.8c0-13.6-2-26.7-5.4-39.2h127.5z m-559.1 39.2c0-55.5 44.7-100.7 99.6-100.7h183.9c54.9 0 99.6 45.2 99.6 100.7v16.8h-383v-16.8z m788.1 443.6c0 55.5-44.7 100.7-99.6 100.7h-589c-54.9 0-99.6-45.2-99.6-100.7V358.9h688.5c54.9 0 99.6 45.2 99.6 100.7v275.7z" fill="#4D4D4D" p-id="2117"></path></svg>