<?xml version="1.0" standalone="no"?><!DOCTYPE svg PUBLIC "-//W3C//DTD SVG 1.1//EN" "http://www.w3.org/Graphics/SVG/1.1/DTD/svg11.dtd"><svg t="1715941307799" class="icon" viewBox="0 0 1024 1024" version="1.1" xmlns="http://www.w3.org/2000/svg" p-id="1413" xmlns:xlink="http://www.w3.org/1999/xlink" width="200" height="200"><path d="M870.4 256h-102.4l-75.093333-75.093333c-17.066667-17.066667-40.96-27.306667-64.853334-27.306667H153.6c-56.32 0-102.4 46.08-102.4 102.4v512c0 56.32 46.08 102.4 102.4 102.4h716.8c56.32 0 102.4-46.08 102.4-102.4V358.4c0-56.32-46.08-102.4-102.4-102.4zM102.4 358.4v-102.4c0-29.013333 22.186667-51.2 51.2-51.2h474.453333c10.24 0 22.186667 5.12 29.013334 11.946667l39.253333 39.253333H262.826667c-35.84 0-66.56 20.48-83.626667 51.2-15.36 30.72-47.786667 51.2-83.626667 51.2H102.4z m819.2 409.6c0 29.013333-22.186667 51.2-51.2 51.2H153.6c-29.013333 0-51.2-22.186667-51.2-51.2V409.6c52.906667-1.706667 98.986667-32.426667 122.88-80.213333 6.826667-13.653333 20.48-22.186667 37.546667-22.186667H870.4c29.013333 0 51.2 22.186667 51.2 51.2v409.6z" fill="#335056" p-id="1414"></path><path d="M179.2 307.2c15.36-30.72 47.786667-51.2 83.626667-51.2h433.493333l-39.253333-39.253333c-8.533333-6.826667-18.773333-11.946667-29.013334-11.946667H153.6c-29.013333 0-51.2 22.186667-51.2 51.2v102.4h-6.826667c35.84 0 68.266667-20.48 83.626667-51.2z" fill="#78BDCC" p-id="1415"></path><path d="M640 435.2m-25.6 0a25.6 25.6 0 1 0 51.2 0 25.6 25.6 0 1 0-51.2 0Z" fill="#78BDCC" p-id="1416"></path><path d="M640 409.6c13.653333 0 25.6 11.946667 25.6 25.6s-11.946667 25.6-25.6 25.6-25.6-11.946667-25.6-25.6 11.946667-25.6 25.6-25.6m0-51.2C597.333333 358.4 563.2 392.533333 563.2 435.2s34.133333 76.8 76.8 76.8 76.8-34.133333 76.8-76.8-34.133333-76.8-76.8-76.8z" fill="#335056" p-id="1417"></path></svg>