<?xml version="1.0" standalone="no"?><!DOCTYPE svg PUBLIC "-//W3C//DTD SVG 1.1//EN" "http://www.w3.org/Graphics/SVG/1.1/DTD/svg11.dtd"><svg t="1716088292883" class="icon" viewBox="0 0 1000 1000" version="1.1" xmlns="http://www.w3.org/2000/svg" p-id="5896" xmlns:xlink="http://www.w3.org/1999/xlink" width="200" height="200"><path d="M518.3258-8.3533c-271.0803 0-490.8353 220.0758-490.8353 491.5537 0 271.4669 219.756 491.5437 490.8353 491.5437 271.0793 0 490.8343-220.0778 490.8343-491.5437C1009.1602 211.7225 789.4051-8.3533 518.3258-8.3533zM442.5781 758.7316c-97.7168-14.1364-46.0137-145.8971-14.3788-207.3544 27.6374-53.6896 49.4245-139.7183-4.3942-139.9881-7.7691-0.03-14.3419-5.7321 7.1684-18.1027 29.0385-16.7546 71.9122-35.436 113.2139-31.0629 71.9132 7.6878 81.4991 88.3251 50.8056 147.8857-30.6565 59.5087-60.3915 142.0937-48.8889 166.0874 9.2671 19.3009 47.169 22.7556 71.8942 22.8435 12.8028 0.0909 18.2923 3.7954 10.7432 10.5558C604.8377 730.8425 543.0881 773.3097 442.5781 758.7316zM561.7801 303.9829c-43.7541 0-79.2425-35.5259-79.2425-79.3502 0-43.8333 35.4884-79.3502 79.2425-79.3502 43.7751 0 79.2625 35.5169 79.2625 79.3502C641.0437 268.457 605.5553 303.9829 561.7801 303.9829z" fill="#cdcdcd" p-id="5897"></path></svg>